<svg width="105" height="32" viewBox="0 0 105 32" fill="none" xmlns="http://www.w3.org/2000/svg">
<g clip-path="url(#clip0_34_2904)">
<rect x="0.86792" width="32" height="32" rx="8" fill="#14401D"/>
<rect x="1.86792" y="5" width="30" height="26" rx="7" fill="#D9FAE1"/>
<rect x="1.86792" y="5" width="30" height="26" rx="7" stroke="#14401D" stroke-width="2"/>
<path d="M16.8679 10.5V18.5L23.8679 25.5" stroke="#14401D" stroke-width="4" stroke-linecap="round" stroke-linejoin="round"/>
</g>
<rect x="1.86792" y="1" width="30" height="30" rx="7" stroke="#14401D" stroke-width="2"/>
<path d="M36.8679 24.3613H42.2703V19.334H44.7195C46.821 19.334 48.4187 18.8223 49.5125 17.7988C50.614 16.7754 51.1648 15.2793 51.1648 13.3105C51.1648 11.3418 50.6101 9.84961 49.5007 8.83398C48.3914 7.81055 46.8132 7.29883 44.7664 7.29883H36.8679V24.3613ZM42.2703 15.6191V11.1309H43.8054C44.5632 11.1309 45.0789 11.3105 45.3523 11.6699C45.6335 12.0215 45.7742 12.584 45.7742 13.3574C45.7742 14.1387 45.6335 14.7129 45.3523 15.0801C45.0789 15.4395 44.5632 15.6191 43.8054 15.6191H42.2703Z" fill="#14401D"/>
<path d="M52.2523 18.5137C52.2523 20.4668 52.9085 21.9863 54.221 23.0723C55.5335 24.1582 57.225 24.7012 59.2953 24.7012C61.3656 24.7012 63.057 24.1582 64.3695 23.0723C65.6898 21.9863 66.35 20.4668 66.35 18.5137V18.1387C66.35 16.1934 65.6898 14.6777 64.3695 13.5918C63.057 12.5059 61.3656 11.9629 59.2953 11.9629C57.2328 11.9629 55.5414 12.5059 54.221 13.5918C52.9085 14.6777 52.2523 16.1934 52.2523 18.1387V18.5137ZM57.5843 17.7754C57.5843 16.9316 57.7445 16.373 58.0648 16.0996C58.3929 15.8184 58.8031 15.6777 59.2953 15.6777C59.7875 15.6777 60.1937 15.8184 60.514 16.0996C60.8421 16.373 61.0062 16.9316 61.0062 17.7754V18.8652C61.0062 19.7246 60.85 20.2949 60.5375 20.5762C60.2328 20.8574 59.8187 20.998 59.2953 20.998C58.7796 20.998 58.3656 20.8574 58.0531 20.5762C57.7406 20.2949 57.5843 19.7246 57.5843 18.8652V17.7754Z" fill="#14401D"/>
<path d="M68.2343 24.3613H73.4609V16.9785C73.5859 16.5801 73.7617 16.2949 73.9882 16.123C74.2148 15.9512 74.4882 15.8652 74.8085 15.8652C75.1992 15.8652 75.4804 15.9902 75.6523 16.2402C75.8242 16.4902 75.9101 16.8418 75.9101 17.2949V24.3613H81.1484V16.9785C81.2812 16.6035 81.4648 16.3262 81.6992 16.1465C81.9414 15.959 82.2265 15.8652 82.5546 15.8652C82.914 15.873 83.1757 15.998 83.3398 16.2402C83.5039 16.4824 83.5859 16.8145 83.5859 17.2363V24.3613H88.8359V17.2246C88.8359 15.373 88.4453 14.0527 87.664 13.2637C86.8828 12.4668 85.8945 12.0684 84.6992 12.0684C83.8789 12.0684 83.0625 12.2637 82.25 12.6543C81.4375 13.0371 80.8593 13.5527 80.5156 14.2012H80.4804C80.2226 13.5449 79.7617 13.0254 79.0976 12.6426C78.4414 12.2598 77.6718 12.0684 76.789 12.0684C76.0937 12.0684 75.4375 12.2012 74.8203 12.4668C74.2031 12.7324 73.7421 13.1309 73.4375 13.6621H73.3671L73.332 12.3379H68.2343V24.3613Z" fill="#14401D"/>
<path d="M90.6382 18.5137C90.6382 20.4668 91.2945 21.9863 92.607 23.0723C93.9195 24.1582 95.6109 24.7012 97.6812 24.7012C99.7515 24.7012 101.443 24.1582 102.755 23.0723C104.076 21.9863 104.736 20.4668 104.736 18.5137V18.1387C104.736 16.1934 104.076 14.6777 102.755 13.5918C101.443 12.5059 99.7515 11.9629 97.6812 11.9629C95.6187 11.9629 93.9273 12.5059 92.607 13.5918C91.2945 14.6777 90.6382 16.1934 90.6382 18.1387V18.5137ZM95.9703 17.7754C95.9703 16.9316 96.1304 16.373 96.4507 16.0996C96.7789 15.8184 97.189 15.6777 97.6812 15.6777C98.1734 15.6777 98.5796 15.8184 98.9 16.0996C99.2281 16.373 99.3921 16.9316 99.3921 17.7754V18.8652C99.3921 19.7246 99.2359 20.2949 98.9234 20.5762C98.6187 20.8574 98.2046 20.998 97.6812 20.998C97.1656 20.998 96.7515 20.8574 96.439 20.5762C96.1265 20.2949 95.9703 19.7246 95.9703 18.8652V17.7754Z" fill="#14401D"/>
<defs>
<clipPath id="clip0_34_2904">
<rect x="0.86792" width="32" height="32" rx="8" fill="white"/>
</clipPath>
</defs>
</svg>
