<svg width="105" height="32" viewBox="0 0 105 32" fill="none" xmlns="http://www.w3.org/2000/svg">
<g clip-path="url(#clip0_34_2930)">
<rect x="0.735931" width="32" height="32" rx="8" fill="#F2F9FF"/>
<rect x="1.73593" y="5" width="30" height="30" rx="7" fill="#153047"/>
<rect x="1.73593" y="5" width="30" height="30" rx="7" stroke="#F2F9FF" stroke-width="2"/>
<path d="M16.7359 10.5V18.5L23.7359 25.5" stroke="#F2F9FF" stroke-width="4" stroke-linecap="round" stroke-linejoin="round"/>
</g>
<rect x="1.73593" y="1" width="30" height="30" rx="7" stroke="#F2F9FF" stroke-width="2"/>
<path d="M36.7359 24.3613H42.1383V19.334H44.5875C46.6891 19.334 48.2867 18.8223 49.3805 17.7988C50.482 16.7754 51.0328 15.2793 51.0328 13.3105C51.0328 11.3418 50.4781 9.84961 49.3687 8.83398C48.2594 7.81055 46.6812 7.29883 44.6344 7.29883H36.7359V24.3613ZM42.1383 15.6191V11.1309H43.6734C44.4312 11.1309 44.9469 11.3105 45.2203 11.6699C45.5016 12.0215 45.6422 12.584 45.6422 13.3574C45.6422 14.1387 45.5016 14.7129 45.2203 15.0801C44.9469 15.4395 44.4312 15.6191 43.6734 15.6191H42.1383Z" fill="#F2F9FF"/>
<path d="M52.1203 18.5137C52.1203 20.4668 52.7766 21.9863 54.0891 23.0723C55.4016 24.1582 57.093 24.7012 59.1633 24.7012C61.2336 24.7012 62.925 24.1582 64.2375 23.0723C65.5578 21.9863 66.218 20.4668 66.218 18.5137V18.1387C66.218 16.1934 65.5578 14.6777 64.2375 13.5918C62.925 12.5059 61.2336 11.9629 59.1633 11.9629C57.1008 11.9629 55.4094 12.5059 54.0891 13.5918C52.7766 14.6777 52.1203 16.1934 52.1203 18.1387V18.5137ZM57.4523 17.7754C57.4523 16.9316 57.6125 16.373 57.9328 16.0996C58.2609 15.8184 58.6711 15.6777 59.1633 15.6777C59.6555 15.6777 60.0617 15.8184 60.382 16.0996C60.7101 16.373 60.8742 16.9316 60.8742 17.7754V18.8652C60.8742 19.7246 60.718 20.2949 60.4055 20.5762C60.1008 20.8574 59.6867 20.998 59.1633 20.998C58.6476 20.998 58.2336 20.8574 57.9211 20.5762C57.6086 20.2949 57.4523 19.7246 57.4523 18.8652V17.7754Z" fill="#F2F9FF"/>
<path d="M68.1023 24.3613H73.3289V16.9785C73.4539 16.5801 73.6297 16.2949 73.8562 16.123C74.0828 15.9512 74.3562 15.8652 74.6766 15.8652C75.0672 15.8652 75.3484 15.9902 75.5203 16.2402C75.6922 16.4902 75.7781 16.8418 75.7781 17.2949V24.3613H81.0164V16.9785C81.1492 16.6035 81.3328 16.3262 81.5672 16.1465C81.8094 15.959 82.0945 15.8652 82.4226 15.8652C82.782 15.873 83.0437 15.998 83.2078 16.2402C83.3719 16.4824 83.4539 16.8145 83.4539 17.2363V24.3613H88.7039V17.2246C88.7039 15.373 88.3133 14.0527 87.532 13.2637C86.7508 12.4668 85.7625 12.0684 84.5672 12.0684C83.7469 12.0684 82.9305 12.2637 82.118 12.6543C81.3055 13.0371 80.7273 13.5527 80.3836 14.2012H80.3484C80.0906 13.5449 79.6297 13.0254 78.9656 12.6426C78.3094 12.2598 77.5398 12.0684 76.657 12.0684C75.9617 12.0684 75.3055 12.2012 74.6883 12.4668C74.0711 12.7324 73.6101 13.1309 73.3055 13.6621H73.2351L73.2 12.3379H68.1023V24.3613Z" fill="#F2F9FF"/>
<path d="M90.5062 18.5137C90.5062 20.4668 91.1625 21.9863 92.475 23.0723C93.7875 24.1582 95.4789 24.7012 97.5492 24.7012C99.6195 24.7012 101.311 24.1582 102.623 23.0723C103.944 21.9863 104.604 20.4668 104.604 18.5137V18.1387C104.604 16.1934 103.944 14.6777 102.623 13.5918C101.311 12.5059 99.6195 11.9629 97.5492 11.9629C95.4867 11.9629 93.7953 12.5059 92.475 13.5918C91.1625 14.6777 90.5062 16.1934 90.5062 18.1387V18.5137ZM95.8383 17.7754C95.8383 16.9316 95.9984 16.373 96.3187 16.0996C96.6469 15.8184 97.057 15.6777 97.5492 15.6777C98.0414 15.6777 98.4477 15.8184 98.768 16.0996C99.0961 16.373 99.2602 16.9316 99.2602 17.7754V18.8652C99.2602 19.7246 99.1039 20.2949 98.7914 20.5762C98.4867 20.8574 98.0727 20.998 97.5492 20.998C97.0336 20.998 96.6195 20.8574 96.307 20.5762C95.9945 20.2949 95.8383 19.7246 95.8383 18.8652V17.7754Z" fill="#F2F9FF"/>
<defs>
<clipPath id="clip0_34_2930">
<rect x="0.735931" width="32" height="32" rx="8" fill="white"/>
</clipPath>
</defs>
</svg>
