<svg width="10" height="10" viewBox="0 0 20 20" fill="currentColor"
     xmlns="http://www.w3.org/2000/svg">
    <path d="M19.7125 18.2875C19.9003 18.4771 20.0056 18.7332 20.0056 19C20.0056 19.2669 19.9003 19.5229 19.7125 19.7125C19.5214 19.8973 19.2659 20.0007 19 20.0007C18.7341 20.0007 18.4786 19.8973 18.2875 19.7125L10 11.4125L1.71251 19.7125C1.52137 19.8973 1.26589 20.0007 1.00001 20.0007C0.734128 20.0007 0.47865 19.8973 0.28751 19.7125C0.0997283 19.5229 -0.00561523 19.2669 -0.00561523 19C-0.00561523 18.7332 0.0997283 18.4771 0.28751 18.2875L8.58751 10L0.28751 1.71252C0.128047 1.51823 0.046555 1.27156 0.0588851 1.02051C0.0712152 0.769459 0.176486 0.531968 0.35422 0.354233C0.531955 0.176499 0.769446 0.0712281 1.0205 0.0588981C1.27155 0.046568 1.51821 0.12806 1.71251 0.287523L10 8.58752L18.2875 0.287523C18.4818 0.12806 18.7285 0.046568 18.9795 0.0588981C19.2306 0.0712281 19.4681 0.176499 19.6458 0.354233C19.8235 0.531968 19.9288 0.769459 19.9411 1.02051C19.9535 1.27156 19.872 1.51823 19.7125 1.71252L11.4125 10L19.7125 18.2875Z"
          fill="#471515"/>
</svg>