<svg width="24" height="22" viewBox="0 0 24 22" fill="none" xmlns="http://www.w3.org/2000/svg">
<path d="M5.76102 4.1735V0.877924C5.76102 0.659414 5.84783 0.449854 6.00234 0.295344C6.15685 0.140834 6.36641 0.0540314 6.58492 0.0540314C6.80343 0.0540314 7.01299 0.140834 7.1675 0.295344C7.32201 0.449854 7.40881 0.659414 7.40881 0.877924V4.1735C7.40881 4.39201 7.32201 4.60157 7.1675 4.75608C7.01299 4.91059 6.80343 4.99739 6.58492 4.99739C6.36641 4.99739 6.15685 4.91059 6.00234 4.75608C5.84783 4.60157 5.76102 4.39201 5.76102 4.1735ZM9.88049 4.99739C10.099 4.99739 10.3086 4.91059 10.4631 4.75608C10.6176 4.60157 10.7044 4.39201 10.7044 4.1735V0.877924C10.7044 0.659414 10.6176 0.449854 10.4631 0.295344C10.3086 0.140834 10.099 0.0540314 9.88049 0.0540314C9.66198 0.0540314 9.45242 0.140834 9.29791 0.295344C9.1434 0.449854 9.0566 0.659414 9.0566 0.877924V4.1735C9.0566 4.39201 9.1434 4.60157 9.29791 4.75608C9.45242 4.91059 9.66198 4.99739 9.88049 4.99739ZM13.1761 4.99739C13.3946 4.99739 13.6041 4.91059 13.7586 4.75608C13.9132 4.60157 14 4.39201 14 4.1735V0.877924C14 0.659414 13.9132 0.449854 13.7586 0.295344C13.6041 0.140834 13.3946 0.0540314 13.1761 0.0540314C12.9576 0.0540314 12.748 0.140834 12.5935 0.295344C12.439 0.449854 12.3522 0.659414 12.3522 0.877924V4.1735C12.3522 4.39201 12.439 4.60157 12.5935 4.75608C12.748 4.91059 12.9576 4.99739 13.1761 4.99739ZM23.0628 10.7646V11.5885C23.0622 12.6361 22.6625 13.6441 21.9451 14.4075C21.2276 15.1709 20.2463 15.6322 19.2008 15.6977C18.6333 17.2849 17.6773 18.7047 16.4201 19.8275H18.9433C19.1618 19.8275 19.3714 19.9143 19.5259 20.0688C19.6804 20.2233 19.7672 20.4328 19.7672 20.6514C19.7672 20.8699 19.6804 21.0794 19.5259 21.2339C19.3714 21.3884 19.1618 21.4752 18.9433 21.4752H0.817667C0.599157 21.4752 0.389597 21.3884 0.235087 21.2339C0.0805771 21.0794 -0.00622559 20.8699 -0.00622559 20.6514C-0.00622559 20.4328 0.0805771 20.2233 0.235087 20.0688C0.389597 19.9143 0.599157 19.8275 0.817667 19.8275H3.34084C2.29092 18.898 1.44981 17.7566 0.872902 16.4785C0.295994 15.2005 -0.00362554 13.8147 -0.00622559 12.4124V7.46907C-0.00622559 7.25056 0.0805771 7.041 0.235087 6.88649C0.389597 6.73198 0.599157 6.64517 0.817667 6.64517H18.9433C20.0359 6.64517 21.0837 7.07919 21.8562 7.85174C22.6288 8.62429 23.0628 9.67209 23.0628 10.7646ZM18.1194 8.29296H1.64156V12.4124C1.64491 13.9591 2.08192 15.4738 2.90295 16.7845C3.72398 18.0953 4.89612 19.1495 6.28626 19.8275H13.4747C14.5132 19.32 15.4337 18.6005 16.177 17.7153C16.9202 16.8301 17.4697 15.799 17.7899 14.6884C17.8014 14.6697 17.8084 14.6485 17.8105 14.6266C18.0175 13.9069 18.1215 13.1614 18.1194 12.4124V8.29296ZM21.415 10.7646C21.4144 10.254 21.2557 9.75606 20.9606 9.33928C20.6656 8.92251 20.2486 8.60736 19.7672 8.43714V12.4124C19.7678 12.9299 19.7265 13.4465 19.6436 13.9572C20.1548 13.8062 20.6035 13.494 20.9227 13.0671C21.2419 12.6402 21.4146 12.1216 21.415 11.5885V10.7646Z" fill="#153047"/>
</svg>
