<svg width="28" height="28" viewBox="0 0 28 28" fill="none" xmlns="http://www.w3.org/2000/svg">
<path d="M27.6876 11.0375C27.6565 10.8977 27.5958 10.7662 27.5095 10.6519C27.4233 10.5376 27.3135 10.4432 27.1876 10.375L24.2126 8.72498C24.0531 8.4016 23.8736 8.08849 23.6751 7.78748L23.7376 4.38748C23.7387 4.24487 23.7104 4.10356 23.6545 3.97236C23.5986 3.84117 23.5162 3.72291 23.4126 3.62498C21.9313 2.28193 20.1795 1.27177 18.2751 0.662477C18.1383 0.619833 17.994 0.606696 17.8518 0.623934C17.7096 0.641173 17.5727 0.688393 17.4501 0.762477L14.5376 2.51248C14.1751 2.49998 13.8251 2.49998 13.4626 2.51248L10.5501 0.762477C10.4274 0.688393 10.2905 0.641173 10.1483 0.623934C10.0061 0.606696 9.86182 0.619833 9.72506 0.662477C7.81814 1.27224 6.0656 2.28709 4.58756 3.63748C4.48298 3.73204 4.39987 3.84791 4.34381 3.97727C4.28775 4.10664 4.26005 4.24651 4.26256 4.38748L4.32506 7.78748C4.12506 8.08748 3.95006 8.39998 3.77506 8.72498L0.800055 10.375C0.675956 10.4439 0.568171 10.5387 0.484044 10.6531C0.399917 10.7674 0.341425 10.8985 0.312555 11.0375C-0.112486 12.9896 -0.112486 15.0103 0.312555 16.9625C0.343604 17.1023 0.404313 17.2338 0.490574 17.3481C0.576836 17.4623 0.686639 17.5568 0.812555 17.625L3.78756 19.275C3.94704 19.5984 4.12655 19.9115 4.32506 20.2125L4.26256 23.6125C4.26141 23.7551 4.28968 23.8964 4.3456 24.0276C4.40152 24.1588 4.48389 24.277 4.58756 24.375C6.06885 25.718 7.82065 26.7282 9.72506 27.3375C9.86182 27.3801 10.0061 27.3933 10.1483 27.376C10.2905 27.3588 10.4274 27.3116 10.5501 27.2375L13.4626 25.4875H14.5376L17.4626 27.2375C17.6146 27.3375 17.7931 27.3897 17.9751 27.3875C18.0767 27.3831 18.1775 27.3663 18.2751 27.3375C20.182 26.7277 21.9345 25.7129 23.4126 24.3625C23.5171 24.2679 23.6002 24.1521 23.6563 24.0227C23.7124 23.8933 23.7401 23.7534 23.7376 23.6125L23.6751 20.2125C23.8751 19.9125 24.0501 19.6 24.2251 19.275L27.2001 17.625C27.3242 17.5561 27.4319 17.4612 27.5161 17.3469C27.6002 17.2326 27.6587 17.1015 27.6876 16.9625C28.1126 15.0103 28.1126 12.9896 27.6876 11.0375ZM14.0001 19.5C12.9123 19.5 11.8489 19.1774 10.9444 18.5731C10.04 17.9687 9.335 17.1097 8.91872 16.1047C8.50244 15.0997 8.39352 13.9939 8.60574 12.927C8.81796 11.8601 9.34178 10.8801 10.111 10.1109C10.8802 9.3417 11.8602 8.81788 12.9271 8.60566C13.994 8.39344 15.0998 8.50236 16.1048 8.91864C17.1098 9.33492 17.9688 10.0399 18.5731 10.9443C19.1775 11.8488 19.5001 12.9122 19.5001 14C19.5001 15.4587 18.9206 16.8576 17.8891 17.8891C16.8577 18.9205 15.4587 19.5 14.0001 19.5Z" fill="#471515"/>
</svg>
